PathFileType	4	(X/Y/Z)	RBDS010\RBDS010runT45.trc
DataRate	CameraRate	NumFrames	NumMarkers	Units	OrigDataRate	OrigDataStartFrame	OrigNumFrames
150.000000	150.000000	4	32	mm	150.000000	1687	4500
Frame#	Time	L.ASIS			L.Heel.Bottom			L.Heel.Lateral			L.Heel.Top			L.Iliac.Crest			L.MT5			L.PSIS			L.Shank.Bottom.Lateral			L.Shank.Bottom.Medial			L.Shank.Top.Lateral			L.Shank.Top.Medial			L.Thigh.Bottom.Lateral			L.Thigh.Bottom.Medial			L.Thigh.Top.Lateral			L.Thigh.Top.Medial			R.ASIS			R.ASY			R.Heel.Bottom			R.Heel.Lateral			R.Heel.Top			R.Iliac.Crest			R.MT1			R.MT5			R.PSIS			R.Shank.Bottom.Lateral			R.Shank.Bottom.Medial			R.Shank.Top.Lateral			R.Shank.Top.Medial			R.Thigh.Bottom.Lateral			R.Thigh.Bottom.Medial			R.Thigh.Top.Lateral			R.Thigh.Top.Medial			
		X1	Y1	Z1	X2	Y2	Z2	X3	Y3	Z3	X4	Y4	Z4	X5	Y5	Z5	X6	Y6	Z6	X7	Y7	Z7	X8	Y8	Z8	X9	Y9	Z9	X10	Y10	Z10	X11	Y11	Z11	X12	Y12	Z12	X13	Y13	Z13	X14	Y14	Z14	X15	Y15	Z15	X16	Y16	Z16	X17	Y17	Z17	X18	Y18	Z18	X19	Y19	Z19	X20	Y20	Z20	X21	Y21	Z21	X22	Y22	Z22	X23	Y23	Z23	X24	Y24	Z24	X25	Y25	Z25	X26	Y26	Z26	X27	Y27	Z27	X28	Y28	Z28	X29	Y29	Z29	X30	Y30	Z30	X31	Y31	Z31	X32	Y32	Z32	

1688	11.24666666666667	2358.935464210419	912.5700375940555	876.9200065660588	1843.25419018128	114.3130217399343	1003.281143218898	1871.374292531769	109.9848062560145	955.4613084934155	1872.992498978708	155.6052614285433	995.3119896317693	2319.640162657236	1002.722457448554	853.0193399365472	2008.552115588338	41.30222223757346	929.0774307109543	2204.873243256194	972.5770664175478	971.2440558626989	1971.748891895699	202.2188771339383	925.3455120858004	1950.019552813563	231.8684536336432	964.5736588794613	2015.087592308262	264.927912458244	900.6749606099127	1994.835741500153	295.0145125841159	940.5849985694111	2203.465952886214	525.5112278711783	852.5306786794471	2152.681373603579	526.6775766095338	904.6059888531723	2191.952010626288	634.7199352457562	841.9514660404452	2145.185932099888	636.3792999120301	891.9965699632432	2391.55055596545	912.4387300407416	1101.135742631931	2283.382596891247	256.5505940239457	1069.67919690997	2139.908000339624	375.3859943570194	1099.073338574429	2179.426927575291	359.7616635854861	1134.714916456322	2185.857656074268	392.7539171255009	1090.924609697442	2329.561458704633	996.299311821629	1155.659729006378	2245.463537308447	206.8287553707113	1017.989680867354	2255.856956389935	213.023001524792	1131.130803386638	2216.485277331342	971.761415364495	1068.760411189358	2311.958627836198	379.7447929259083	1124.017758903339	2286.163087182541	421.6866349822602	1108.399240069535	2381.669767731154	427.4271247475262	1132.062392843168	2351.370701476577	468.5944707599533	1115.803407238274	2512.977271817057	615.7038979866469	1147.073973263047	2470.23952951551	575.0431870505345	1102.870314533044	2427.661841698373	681.8249909922098	1166.085151084521	2385.303156353873	641.8316330098044	1128.011358914121	
1689	11.25333333333333	2362.967163785172	915.3684606488715	877.5851333140673	1821.639024024017	127.8287106778612	1000.068661300383	1849.51122663368	120.9972836550656	952.5217189422023	1853.841848512309	166.9026356608334	991.5775480087759	2325.901359085657	1006.556936109249	853.5121458440423	1980.700796179651	42.52334070171521	928.0260867249555	2208.373374417574	976.3742444812584	969.9505646350921	1950.545207424054	210.7106071729478	923.1768852738622	1929.376576678815	239.6028826325359	963.174846296247	1993.744893782848	273.8193480402809	899.200202160263	1973.96173964148	303.1310747689409	939.9097006454045	2188.16188882833	533.7907535183055	852.5737030413541	2138.095590222954	537.3119312097941	905.3313153555636	2182.369383483257	643.5565293184293	842.8766906488107	2136.73266134945	647.2850514999493	893.7908079343414	2393.788109948649	918.3272014580236	1100.9641546654	2311.920213084292	245.3638791879086	1068.689191055813	2159.408799545792	353.4163969035154	1094.587555511828	2199.337159268279	340.8036376861692	1130.826381797898	2204.077194194498	374.0686656093673	1086.976887753068	2331.196289293081	1002.770361439458	1155.502849045868	2278.389523277832	192.5254041858765	1016.757430310972	2286.261033777808	200.1002485661724	1129.978888114015	2218.962432782821	976.702591910654	1067.800558789799	2330.212749275037	370.8756139454379	1121.950931152301	2301.611835301268	410.616189777722	1105.525419847336	2396.016454151327	423.9032807406246	1130.505833501031	2362.926862582555	462.5512332975179	1113.440078917801	2518.739111400791	625.0626055749872	1146.085812037137	2476.357834082909	583.6233248979501	1102.411229421098	2432.479732680552	689.7715981187295	1165.586037198548	2390.694997372568	649.1454802844572	1127.666738732083	
1690	11.26	2367.329448663935	918.1717716138418	878.3633235550707	1802.05384789262	142.5149054031173	996.1947124574008	1829.547531566734	133.0846411221403	948.9891300653284	1836.771948741151	178.996482275022	987.3091417797141	2332.685402988991	1010.338101737461	853.9834451433065	1953.796309441454	44.50362106168972	926.6313518857503	2212.184228767622	980.3430119024636	968.4446890682656	1931.027340324069	219.7406659992198	920.6828262044057	1910.295866148489	247.6811960766326	961.4896526742734	1973.909623626858	283.4254092328344	897.5888404012567	1954.430496818371	311.8012037843583	939.1157560090494	2173.547732225271	543.1113589320963	852.9622576021676	2124.444279901839	548.9855258742286	906.5252620854571	2173.431222687283	653.1419373408273	844.0739446603915	2129.173006622977	658.8825855146357	895.9561909873105	2395.902679397538	924.136158324935	1100.944279467956	2340.849986474896	234.4620216019824	1067.823707033868	2180.228355959508	331.1499872397768	1089.411749116884	2220.10553174581	321.588350095612	1126.467405122982	2223.373012785854	354.9584745394727	1082.500097694773	2332.500811908365	1009.220519313793	1155.283992838817	2312.215929005024	178.8830539047725	1015.652501898332	2316.959385033294	187.6962234797257	1128.903536051527	2221.642746327133	981.6703055053119	1066.609310155426	2348.529694716166	361.7524699698079	1119.755356133961	2317.435196170304	399.0277250499545	1102.187678531634	2409.975398192023	419.8501549958594	1128.813564606654	2374.460833048643	455.7175562971481	1110.556127586489	2523.772098948109	633.6081728032736	1145.18922842911	2481.471622155864	591.3149412975775	1102.432156953497	2436.884028075446	697.2894898129648	1165.043473890672	2395.413264871517	656.0172311815176	1127.63574846289	
1691	11.26666666666667	2371.842904945507	920.9314530651581	879.1961271879333	1784.56815256405	158.3227044494948	991.7399029956746	1811.561818663451	146.2457335559752	944.9336851740741	1821.796530228292	191.8530408848748	982.6302917454665	2339.760411428539	1014.013696795568	854.4222116530533	1927.953321347622	47.45288604172848	924.8848644871144	2216.190038043616	984.4334691019384	966.7826875243647	1913.292786167437	229.230550715568	917.9146119473576	1892.864652561884	256.0900178080072	959.5289612051054	1955.75872147294	293.6013592855965	895.8693972044894	1936.415095112811	320.9465176022617	938.1844455353482	2159.861410557593	553.1923353221882	853.6887583382846	2111.878402108446	561.3995775115511	908.088881604772	2165.287122142702	663.2053362646418	845.4730983325686	2122.554654860071	670.8997456711143	898.3396371889961	2397.814542849536	929.6771573497258	1101.051522009555	2370.102870044931	223.9196333049404	1067.096626799053	2202.372259845984	308.6808505958861	1083.730245292903	2241.763585008615	302.158652703141	1121.785859438593	2243.74932021271	335.514497394621	1077.662321784793	2333.477643945983	1015.444066833681	1155.007632357015	2346.815041781003	166.0492107478234	1014.680584015727	2347.931754750516	175.819885945957	1127.893445623216	2224.45178719457	986.5666272043926	1065.237850821839	2366.893215702137	352.3441653354759	1117.494176677207	2333.65247195354	386.9383619112562	1098.495330275179	2423.55745964556	415.1758904143829	1127.036373297582	2386.026369118131	448.0516867080043	1107.246113895332	2528.047186710919	641.1617987331034	1144.41462502301	2485.580735489035	597.9297490010126	1102.92279086499	2440.787405506177	704.1870657350256	1164.458664299143	2399.396920225205	662.24260196648	1127.876792262226	
